<?xml version="1.0" standalone="no"?>
<!DOCTYPE svg PUBLIC "-//W3C//DTD SVG 20010904//EN"
 "http://www.w3.org/TR/2001/REC-SVG-20010904/DTD/svg10.dtd">
<svg version="1.0" xmlns="http://www.w3.org/2000/svg"
 width="468.000000pt" height="566.000000pt" viewBox="0 0 468.000000 566.000000"
 preserveAspectRatio="xMidYMid meet">

<g transform="translate(0.000000,566.000000) scale(0.100000,-0.100000)"
fill="#000000" stroke="none">
<path d="M0 2830 l0 -2830 2340 0 2340 0 0 2830 0 2830 -2340 0 -2340 0 0
-2830z m3394 2385 c-20 -25 -41 -45 -48 -45 -7 0 -7 -3 1 -8 10 -7 163 -389
163 -407 0 -4 -14 -5 -31 -3 -27 3 -34 9 -49 48 l-18 45 -80 3 -80 3 -17 -51
c-16 -47 -19 -50 -51 -50 -31 0 -33 2 -25 23 5 12 39 101 76 197 37 96 68 182
68 190 0 8 11 34 26 57 23 38 30 43 64 43 l38 0 -37 -45z m-1924 -85 l0 -30
-95 0 -95 0 0 -55 0 -54 83 -3 c80 -3 82 -4 82 -28 0 -24 -2 -25 -82 -28 l-83
-3 0 -59 0 -60 95 0 95 0 0 -30 0 -30 -130 0 -130 0 0 198 c0 109 3 202 7 205
3 4 62 7 130 7 l123 0 0 -30z m118 -147 l2 -173 90 0 90 0 0 -30 0 -30 -125 0
-125 0 0 198 c0 109 3 202 7 206 4 4 19 6 33 4 l25 -3 3 -172z m507 35 c31
-79 60 -147 64 -151 5 -5 35 58 68 140 l59 148 37 3 37 3 0 -205 0 -206 -32 0
-31 0 6 151 c3 84 2 148 -2 143 -5 -5 -33 -73 -62 -152 -50 -133 -55 -143 -78
-140 -21 3 -30 19 -73 133 -70 189 -68 189 -61 18 l6 -153 -37 0 -36 0 0 198
c0 109 3 202 7 205 3 4 21 7 39 7 32 0 32 0 89 -142z m589 -58 c42 -110 76
-202 76 -206 0 -3 -14 -4 -31 -2 -27 3 -34 9 -49 48 l-18 45 -80 3 -80 3 -17
-51 c-16 -47 -19 -50 -51 -50 -32 0 -33 1 -23 28 6 15 40 103 75 196 35 92 67
172 70 177 3 5 16 9 28 9 21 0 31 -20 100 -200z m264 65 c48 -74 90 -135 94
-135 4 0 9 60 10 133 l3 132 30 0 c22 0 30 -4 29 -17 -1 -10 -2 -101 -3 -203
l-1 -185 -28 0 c-24 0 -38 16 -117 137 l-90 137 -3 -137 -3 -137 -34 0 -35 0
0 198 c0 109 3 202 7 205 3 4 17 7 30 7 20 0 39 -24 111 -135z m-528 -550 c60
-31 70 -107 19 -149 -41 -35 -83 -34 -120 3 -44 45 -36 110 19 144 34 21 46
21 82 2z m-296 -104 c42 -26 66 -66 66 -110 0 -26 -4 -31 -34 -36 -65 -13
-110 15 -126 77 -10 35 -14 38 -46 38 -42 0 -74 15 -74 35 0 21 19 25 101 22
58 -3 85 -9 113 -26z m715 23 c25 -5 31 -11 29 -28 -2 -17 -12 -22 -52 -26
-47 -5 -50 -7 -63 -45 -17 -52 -46 -75 -93 -75 -54 0 -70 8 -70 37 0 94 124
162 249 137z m-954 -42 c-6 -5 -53 -24 -105 -42 -52 -18 -99 -37 -105 -43 -18
-17 67 4 140 34 38 17 78 28 90 26 19 -3 18 -4 -5 -15 -83 -38 -247 -102 -262
-102 -18 0 -87 55 -78 63 8 7 293 85 315 86 11 1 15 -3 10 -7z m1185 -42 c80
-24 149 -47 154 -51 4 -4 -11 -20 -35 -34 -48 -31 -51 -30 -174 25 -33 15 -81
35 -107 46 -47 19 -62 34 -33 34 7 0 49 -15 92 -34 72 -32 153 -55 153 -44 0
3 -49 24 -110 48 -60 24 -110 47 -110 53 0 5 6 7 13 5 6 -3 77 -24 157 -48z
m-1060 -1 c0 -12 -147 -83 -207 -98 -42 -12 -59 -31 -27 -31 18 0 203 78 219
92 14 12 25 10 25 -7 0 -18 -229 -135 -262 -135 -13 1 -38 14 -57 30 l-33 28
33 18 c65 34 264 113 287 113 12 1 22 -4 22 -10z m812 2 c89 -35 288 -125 288
-129 0 -13 -66 -62 -84 -62 -28 0 -256 121 -256 136 0 8 2 14 4 14 2 0 49 -20
103 -44 121 -54 147 -63 141 -45 -2 7 -17 17 -34 22 -88 26 -217 93 -208 108
7 11 17 11 46 0z m-357 -51 c0 -12 -16 -16 -74 -18 -85 -3 -103 1 -95 23 9 23
169 18 169 -5z m-930 -22 c-29 -17 -117 -38 -157 -38 -21 0 -38 -4 -38 -10 0
-18 77 -11 157 15 68 21 80 23 92 10 8 -8 13 -16 10 -18 -7 -7 -194 -65 -231
-72 -40 -8 -85 11 -130 53 -46 42 -37 52 45 53 39 0 108 9 152 18 54 12 86 15
99 8 18 -9 18 -10 1 -19z m1953 -23 c45 -4 82 -10 82 -14 0 -3 -14 -21 -31
-39 -34 -37 -66 -52 -107 -52 -39 0 -253 73 -249 85 6 18 38 17 106 -5 41 -13
85 -20 112 -18 l44 4 -40 7 c-69 13 -156 40 -162 50 -13 20 22 23 91 7 40 -10
109 -21 154 -25z m-1430 6 c16 -10 -1 -21 -105 -71 -67 -33 -88 -50 -61 -50 6
0 53 23 105 51 62 33 103 49 121 47 25 -3 21 -7 -43 -49 -101 -66 -149 -89
-191 -89 -37 0 -104 26 -104 40 0 10 230 129 250 129 8 1 21 -3 28 -8z m814
-51 c62 -34 117 -65 121 -69 16 -16 -40 -43 -90 -44 -43 -2 -59 5 -150 61 -57
35 -103 68 -103 73 0 19 37 7 128 -42 52 -27 102 -48 111 -46 9 2 -24 24 -76
50 -90 46 -106 60 -80 70 22 9 25 8 139 -53z m-462 -174 c0 -219 -1 -225 -21
-231 -11 -4 -22 -5 -24 -3 -1 1 -5 105 -7 231 l-5 227 28 0 29 0 0 -224z m180
159 c-48 -48 -105 -83 -117 -71 -4 5 5 18 21 30 16 11 49 38 73 59 59 50 76
36 23 -18z m-384 24 c10 -12 38 -35 62 -51 23 -16 42 -36 42 -44 0 -23 -68 18
-121 72 -36 37 -40 44 -23 44 12 0 29 -10 40 -21z m-547 -8 c7 -5 12 -14 9
-21 -5 -16 -85 -49 -120 -49 -15 -1 -30 -5 -33 -11 -12 -19 56 -10 121 16 60
24 110 26 88 4 -20 -19 -171 -70 -210 -70 -34 0 -48 6 -73 32 -37 38 -38 38
89 79 93 31 108 33 129 20z m1610 -37 c56 -20 101 -40 101 -44 0 -5 -14 -20
-31 -34 -48 -40 -88 -38 -206 11 -76 32 -84 38 -68 49 14 11 26 8 74 -16 49
-25 91 -35 126 -31 16 2 -18 21 -38 21 -30 0 -117 41 -117 55 0 14 15 23 42
24 9 1 62 -15 117 -35z m-1099 14 c0 -7 -30 -29 -67 -48 -96 -51 -91 -69 5
-21 71 36 112 44 112 22 0 -12 -135 -88 -195 -110 -33 -13 -88 -36 -121 -52
-72 -34 -131 -38 -165 -10 -23 18 -23 18 -2 29 30 17 185 72 200 72 33 0 7
-24 -57 -53 -38 -17 -70 -35 -70 -40 0 -11 34 -1 95 28 28 13 58 27 69 30 18
5 18 6 1 25 -9 10 -15 23 -14 29 2 6 40 33 84 60 78 49 125 63 125 39z m566
-43 c46 -30 84 -59 84 -64 0 -5 -7 -14 -15 -21 -19 -16 -19 -30 0 -30 8 0 39
-13 68 -30 30 -16 65 -30 78 -30 18 1 6 10 -43 35 -69 36 -85 49 -68 60 7 5
204 -68 219 -82 12 -10 -31 -35 -67 -40 -33 -4 -57 2 -134 37 -169 76 -237
110 -269 137 -26 23 -28 27 -14 35 11 7 36 -2 90 -31 77 -43 85 -46 85 -33 0
4 -32 25 -70 47 -38 22 -70 46 -70 53 0 25 45 10 126 -43z m-956 -30 c10 -12
5 -18 -35 -35 -26 -11 -58 -23 -71 -26 -13 -3 -24 -11 -24 -16 0 -13 42 -3
109 28 54 24 96 31 105 16 8 -13 -155 -72 -196 -72 -34 0 -88 31 -88 50 0 9
146 68 171 69 9 1 22 -6 29 -14z m500 -10 c41 -21 57 -53 36 -73 -14 -14 -19
-14 -55 3 -48 21 -110 16 -170 -14 -37 -19 -91 -73 -91 -91 0 -14 -63 -22 -99
-13 -18 5 -32 12 -32 17 0 5 26 19 59 32 72 27 221 101 242 119 15 14 57 33
73 34 4 1 21 -6 37 -14z m330 -21 c62 -40 243 -129 284 -140 53 -13 17 -34
-60 -34 -37 0 -44 4 -68 41 -35 52 -110 89 -183 89 -28 0 -55 -4 -58 -10 -9
-15 -51 -12 -64 4 -16 19 0 51 37 70 40 22 52 20 112 -20z m513 5 c42 -17 77
-35 77 -39 0 -5 -12 -18 -27 -30 -23 -18 -36 -21 -76 -16 -43 5 -159 48 -181
68 -22 18 62 6 110 -16 61 -28 120 -43 110 -28 -3 6 -30 18 -59 28 -80 26 -90
33 -76 50 17 20 35 18 122 -17z m-850 -108 c40 -16 35 -41 -9 -41 -21 0 -33
-4 -29 -10 3 -5 17 -10 31 -10 13 0 24 -4 24 -10 0 -15 -61 -12 -90 5 -55 31
-74 36 -97 26 -15 -7 -23 -19 -23 -36 0 -22 9 -30 53 -50 28 -13 82 -31 120
-41 37 -9 67 -19 67 -23 0 -3 -21 -14 -46 -25 -43 -18 -47 -18 -92 -1 -148 55
-197 132 -125 197 39 35 148 45 216 19z m415 -9 c49 -25 65 -79 36 -120 -25
-34 -145 -95 -221 -111 -129 -28 -198 -54 -230 -87 -53 -51 -40 -120 29 -155
21 -11 38 -21 38 -24 0 -2 -14 -12 -30 -20 -28 -15 -33 -14 -61 2 -46 27 -69
72 -69 134 0 57 13 86 59 127 25 21 118 62 144 62 18 0 208 56 249 73 40 17
61 47 52 71 -11 28 -48 29 -99 2 -48 -26 -105 -35 -105 -16 0 6 9 10 19 10 11
0 23 5 26 10 4 6 -8 10 -29 10 -38 0 -45 10 -22 29 42 35 150 36 214 3z m-725
-329 c36 -115 101 -319 236 -743 60 -190 124 -392 142 -450 33 -110 36 -117
44 -108 3 2 46 133 95 289 50 156 108 338 130 404 21 66 62 194 90 285 29 91
69 219 90 285 l39 120 218 3 218 2 -51 -29 c-203 -117 -428 -573 -662 -1341
-57 -184 -133 -465 -152 -554 -6 -31 -14 -55 -16 -53 -3 3 -23 72 -44 153 -79
307 -210 740 -277 914 -201 528 -374 822 -525 890 l-43 20 221 0 220 0 27 -87z
m594 40 c23 -30 28 -46 28 -93 -1 -90 -53 -142 -185 -185 -116 -38 -152 -115
-84 -183 26 -26 32 -37 22 -43 -22 -14 -36 -10 -69 19 -44 39 -52 112 -18 171
23 42 53 60 187 117 56 23 82 56 82 104 0 39 -34 84 -75 100 -17 7 -15 9 15
18 57 17 68 14 97 -25z m-148 -88 c-1 -81 -4 -97 -20 -105 -10 -6 -20 -10 -23
-10 -8 0 -7 195 1 203 3 4 15 7 25 7 17 0 19 -8 17 -95z m-881 7 c2 -29 7 -50
12 -47 19 12 35 -69 16 -84 -19 -15 -86 -23 -86 -11 0 7 9 14 20 17 18 5 19 8
7 22 -7 9 -19 29 -27 44 -13 26 -13 30 3 38 11 7 17 22 17 45 0 28 4 35 18 32
13 -2 18 -15 20 -56z m1653 1 c-10 -20 -81 -87 -81 -77 0 3 17 25 38 49 38 45
60 59 43 28z m-1872 -71 c1 -7 -7 -16 -16 -19 -19 -8 -73 50 -73 79 0 15 7 12
44 -15 25 -17 45 -38 45 -45z m2017 48 c39 -9 139 -59 131 -66 -1 -2 -21 5
-43 15 -70 34 -89 34 -101 3 l-11 -27 -1 33 c-1 20 -5 31 -11 27 -6 -4 -8 -15
-5 -25 3 -10 2 -21 -3 -24 -6 -3 -12 3 -15 14 -6 25 -29 27 -26 3 3 -33 -1
-35 -21 -12 l-19 24 -1 -29 c0 -29 0 -29 -22 -10 l-21 19 6 -32 c7 -34 -1 -41
-21 -21 -6 6 -15 9 -19 5 -4 -4 -1 -13 5 -19 18 -18 14 -30 -8 -23 -21 7 -28
-9 -9 -21 8 -5 7 -9 -4 -15 -9 -6 -13 -17 -10 -29 3 -12 0 -20 -7 -20 -9 0
-11 16 -8 58 3 44 11 67 32 94 55 73 124 98 212 78z m-1906 -13 c-13 -7 -29
-22 -35 -34 -20 -39 -37 -53 -68 -53 -29 0 -30 0 -12 20 10 11 23 20 29 20 6
0 23 14 38 30 15 17 36 30 50 30 l23 0 -25 -13z m40 -47 c0 -5 -14 -10 -31
-10 -17 0 -28 4 -24 10 3 6 17 10 31 10 13 0 24 -4 24 -10z m0 -50 c0 -5 -5
-10 -11 -10 -5 0 -7 5 -4 10 3 6 8 10 11 10 2 0 4 -4 4 -10z m1990 -14 c0 -17
-80 -40 -108 -32 -11 4 -23 14 -27 24 -5 14 -4 15 6 5 18 -18 81 -16 105 2 24
18 24 18 24 1z m-2215 -46 c3 -6 -5 -14 -19 -20 -43 -16 -29 -30 32 -31 52 -1
54 -2 22 -10 -98 -22 -113 -15 -90 45 10 26 43 36 55 16z m2041 -5 c-11 -8
-32 -15 -47 -15 -39 0 -97 -27 -102 -47 -4 -14 -5 -13 -6 4 -1 16 9 28 32 40
27 15 52 21 132 31 6 1 1 -5 -9 -13z m-768 -25 c48 -64 37 -137 -29 -193 -21
-19 -57 -40 -80 -47 -64 -22 -99 -60 -99 -110 0 -23 5 -50 10 -61 8 -13 7 -19
0 -19 -14 0 -40 61 -40 92 0 49 34 90 111 133 85 49 115 87 104 135 -4 17 -20
40 -36 52 l-29 22 27 12 c38 17 37 17 61 -16z m-973 -32 c-6 -23 -17 -44 -23
-46 -7 -2 -12 -16 -13 -30 -1 -41 -12 -57 -41 -60 -26 -2 -26 -1 -17 30 17 61
20 59 -116 57 -69 -1 -130 2 -135 7 -5 5 4 10 23 11 58 4 152 3 180 -3 15 -3
27 -2 26 3 -3 20 2 23 22 13 31 -17 66 -4 84 30 22 42 25 37 10 -12z m1805 20
c0 -23 -9 -22 -39 1 l-24 18 32 -1 c22 -1 31 -6 31 -18z m-939 -74 c-3 -72
-11 -93 -33 -94 -13 0 -9 155 4 168 25 25 33 5 29 -74z m-1006 56 c-3 -5 -14
-10 -23 -10 -15 0 -15 2 -2 10 20 13 33 13 25 0z m1809 -11 c-7 -12 -54 -12
-54 0 0 5 6 11 13 14 18 6 48 -4 41 -14z m26 -106 l21 -27 -23 -9 c-13 -4 -38
-5 -56 -2 -20 4 -39 1 -48 -6 -15 -12 -9 -33 7 -24 5 4 9 -1 9 -9 0 -9 -4 -16
-8 -16 -18 0 -32 26 -31 60 0 21 3 29 7 20 6 -12 20 -14 67 -10 l60 5 -22 23
c-13 12 -19 22 -14 22 5 0 19 -12 31 -27z m-1706 -79 c3 -33 12 -80 20 -104
17 -48 12 -66 -9 -36 -22 30 -52 169 -37 174 6 2 12 11 12 20 0 39 10 0 14
-54z m950 -49 c23 -35 21 -107 -4 -136 l-20 -24 10 28 c16 46 12 84 -15 115
-30 36 -31 42 -6 42 10 0 26 -11 35 -25z m591 -46 c7 -29 -12 -76 -39 -98 -22
-19 -20 -5 5 29 17 22 20 36 15 65 -9 46 -31 44 -64 -5 -24 -35 -25 -58 -7
-130 l7 -25 -21 24 c-40 45 -26 114 36 179 7 7 13 18 13 24 0 21 49 -35 55
-63z m-665 -37 c0 -134 -12 -306 -21 -290 -10 18 -15 350 -6 366 19 29 27 6
27 -76z m-811 -17 c0 -5 -6 -1 -14 9 -8 11 -15 31 -14 45 0 24 2 23 14 -9 7
-19 14 -39 14 -45z m1529 50 c15 -33 15 -42 0 -27 -8 8 -15 9 -25 1 -14 -12
-16 -6 -7 29 8 29 18 28 32 -3z m-1384 -40 c20 -31 20 -59 1 -75 -19 -16 -34
-5 -17 12 12 12 17 48 7 48 -3 0 -14 -9 -25 -20 -16 -16 -18 -25 -10 -40 13
-23 -2 -27 -20 -5 -19 22 -70 18 -97 -7 -19 -17 -23 -19 -17 -5 8 21 0 22 -32
1 -13 -9 -28 -14 -32 -10 -3 4 0 11 8 16 28 18 119 42 134 37 19 -8 72 39 68
59 -5 23 14 16 32 -11z m1176 -3 c0 -5 -11 -14 -24 -20 -14 -6 -37 -32 -51
-57 -23 -38 -27 -54 -23 -99 6 -69 44 -146 109 -219 28 -32 49 -60 46 -63 -12
-13 -117 109 -146 169 -62 129 -23 262 87 296 1 1 2 -3 2 -7z m-1024 -27 c-50
-9 -73 -18 -85 -34 -9 -12 -28 -28 -41 -34 -14 -7 -26 -23 -28 -35 -2 -12 -8
-22 -13 -22 -35 0 63 116 109 130 15 5 50 8 77 8 l50 0 -69 -13z m1274 -30
c32 -34 71 -54 123 -64 34 -6 41 -11 39 -26 -6 -39 -37 -70 -73 -72 l-34 -2
28 10 c15 6 25 15 22 19 -3 5 3 18 15 30 18 18 18 20 3 20 -28 0 -114 54 -153
95 -21 23 -27 33 -15 27 11 -6 31 -22 45 -37z m-1291 -12 c-26 -36 -63 -73
-71 -73 -17 0 -7 21 27 55 37 37 68 49 44 18z m70 -24 c-24 -70 -77 -105 -146
-94 -56 8 -47 24 10 18 36 -4 48 -1 73 20 16 14 39 41 49 61 23 43 29 41 14
-5z m1181 27 c0 -3 -4 -8 -10 -11 -5 -3 -10 -1 -10 4 0 6 5 11 10 11 6 0 10
-2 10 -4z m-221 -55 c-6 -17 -9 -43 -7 -56 3 -13 1 -22 -3 -19 -13 7 -11 71 2
96 16 29 21 16 8 -21z m229 11 c2 -7 -6 -12 -17 -12 -21 0 -27 11 -14 24 9 9
26 2 31 -12z m-1728 -12 c0 -5 11 -10 24 -10 14 0 28 5 31 10 3 6 11 10 16 10
5 0 2 -11 -6 -24 -11 -16 -14 -35 -10 -58 l6 -33 -51 4 c-35 2 -65 -3 -91 -15
-22 -9 -42 -14 -45 -11 -10 10 68 39 119 44 l48 6 -31 18 c-20 13 -30 27 -30
44 0 14 5 25 10 25 6 0 10 -4 10 -10z m294 -6 c4 -9 5 -19 2 -21 -6 -6 -46 20
-46 29 0 15 38 8 44 -8z m40 -75 c11 17 43 -22 57 -70 15 -49 5 -97 -31 -150
-16 -24 -30 -52 -30 -61 0 -9 -4 -20 -10 -23 -24 -15 -7 52 26 106 34 54 36
63 31 110 -4 28 -12 57 -18 65 -17 21 -21 11 -9 -21 13 -35 2 -128 -15 -121
-7 2 -25 -4 -41 -15 -16 -10 -38 -18 -49 -18 -18 1 -18 2 -2 6 11 3 16 11 13
19 -4 10 2 14 19 14 35 0 68 47 62 88 -3 18 -13 39 -21 48 -18 17 -20 27 -9
38 4 4 10 -1 13 -10 5 -13 9 -14 14 -5z m-190 0 c-37 -11 -66 -40 -46 -46 17
-6 15 -33 -3 -33 -8 0 -15 -5 -15 -11 0 -7 7 -8 18 -3 32 14 92 16 107 4 12
-10 18 -10 30 0 12 10 15 10 15 -3 0 -22 -29 -29 -53 -12 -29 20 -49 19 -80
-5 -24 -19 -27 -19 -42 -4 -9 9 -14 23 -11 31 3 8 6 20 6 27 0 8 9 25 21 40
15 19 29 26 52 25 l32 -1 -31 -9z m71 -9 c3 -5 2 -10 -4 -10 -5 0 -13 5 -16
10 -3 6 -2 10 4 10 5 0 13 -4 16 -10z m-35 -30 c0 -21 -24 -28 -35 -10 -8 14
3 30 21 30 8 0 14 -9 14 -20z m1618 13 c-10 -2 -26 -2 -35 0 -10 3 -2 5 17 5
19 0 27 -2 18 -5z m-1768 -23 c0 -12 -37 -12 -65 0 -15 7 -10 9 23 9 23 1 42
-3 42 -9z m-73 -39 c36 -13 46 -14 64 -3 12 7 24 10 27 7 9 -9 -27 -35 -47
-35 -20 0 -121 47 -121 56 0 3 8 3 18 -1 9 -4 36 -15 59 -24z m1838 22 c-11
-3 -32 -14 -47 -25 -32 -22 -105 -38 -94 -20 4 7 17 12 29 12 12 1 38 9 57 20
19 11 44 19 55 18 l20 0 -20 -5z m-1282 -65 c4 -12 4 -33 0 -46 -5 -22 -4 -23
15 -13 12 6 27 10 33 9 7 -2 16 12 19 30 4 18 11 36 14 40 14 13 27 -24 23
-66 -3 -28 1 -54 13 -77 18 -36 24 -85 9 -85 -15 0 -22 22 -9 30 9 5 9 9 1 14
-6 4 -11 13 -11 21 0 8 -5 26 -11 42 -10 26 -11 27 -21 9 -8 -15 -12 -16 -19
-5 -6 11 -11 10 -26 -4 -10 -9 -33 -29 -50 -43 -36 -28 -42 -44 -18 -44 8 0
15 -4 15 -10 0 -5 -9 -10 -19 -10 -11 0 -22 -6 -24 -12 -3 -7 -6 1 -6 17 -1
17 8 48 20 69 14 27 19 51 16 75 -7 61 23 110 36 59z m1077 -23 c-13 -14 -28
-25 -33 -25 -6 0 0 11 13 25 13 14 28 25 33 25 6 0 0 -11 -13 -25z m-1393 -2
c-22 -22 -97 -18 -97 5 0 4 25 7 55 7 43 0 52 -3 42 -12z m1435 -66 c15 -50 3
-59 -17 -11 -10 24 -13 48 -9 64 6 22 8 23 11 5 2 -11 9 -37 15 -58z m-1420
13 c14 -11 28 -33 31 -50 4 -17 16 -43 28 -59 14 -19 19 -36 15 -47 -5 -14
-16 1 -44 59 -28 60 -43 80 -69 92 -18 9 -33 18 -33 20 0 13 50 3 72 -15z
m1173 -12 c14 -6 25 -15 25 -20 0 -4 9 -17 21 -29 11 -11 18 -24 14 -27 -4 -4
-19 9 -35 28 -16 19 -36 35 -46 35 -10 0 -19 6 -22 13 -5 15 10 15 43 0z m-69
-24 c-2 -25 32 -43 44 -24 5 8 10 10 10 4 0 -6 -6 -17 -14 -23 -10 -8 -20 -6
-41 11 l-28 22 6 -37 c4 -28 2 -37 -9 -37 -18 0 -18 -14 0 -29 9 -8 32 -10 64
-5 39 5 55 3 74 -11 l23 -17 -31 7 c-36 7 -48 -4 -59 -52 -4 -21 -3 -33 4 -33
6 0 11 -11 11 -23 0 -13 9 -32 20 -42 19 -18 20 -17 20 2 0 10 7 28 16 39 15
19 16 19 9 -1 -4 -11 -10 -41 -12 -66 -4 -39 -2 -50 17 -69 20 -20 23 -21 38
-6 14 14 14 22 3 58 -20 68 -22 136 -4 142 8 3 19 3 25 0 16 -10 37 29 38 70
0 27 -7 47 -22 63 -12 13 -17 23 -11 23 33 0 61 -73 45 -120 -7 -18 -7 -32 -1
-35 5 -4 9 -14 9 -23 0 -15 -1 -15 -16 -1 -9 9 -25 14 -40 11 -28 -5 -32 -21
-6 -23 9 -1 24 -3 32 -4 8 -1 21 -3 28 -4 6 0 12 -8 12 -16 0 -13 -4 -14 -21
-5 -11 7 -33 9 -47 5 -23 -6 -25 -8 -9 -16 25 -15 47 -62 36 -80 -4 -8 -6 -23
-3 -34 4 -15 3 -16 -4 -6 -8 11 -14 9 -31 -8 -25 -25 -30 -26 -59 -5 -14 9
-22 26 -22 43 0 27 -40 77 -52 65 -3 -3 -9 10 -13 28 -4 18 -12 36 -17 39 -5
3 -3 23 5 47 l15 42 -27 -6 c-32 -8 -51 -25 -35 -31 7 -2 -1 -17 -17 -34 -16
-17 -29 -40 -29 -52 0 -20 0 -20 15 -1 14 18 14 18 15 -10 0 -29 67 -155 83
-156 4 0 7 9 7 21 0 17 11 10 60 -39 54 -53 62 -58 70 -42 6 10 11 27 13 37 2
18 8 23 27 23 19 0 10 -25 -24 -65 -32 -38 -34 -38 -44 -18 -17 32 -81 68 -95
54 -15 -15 -27 -14 -27 2 0 22 -58 97 -75 97 -17 0 -45 50 -45 80 0 12 7 34
15 49 8 16 12 31 10 33 -3 3 6 15 20 28 l24 23 -19 25 c-25 31 -28 81 -5 62
13 -10 15 -9 15 9 0 22 20 61 31 61 4 0 6 -7 5 -16z m144 0 c0 -14 -3 -14 -15
-4 -8 7 -15 14 -15 16 0 2 7 4 15 4 8 0 15 -7 15 -16z m36 -51 c13 -38 11 -54
-5 -37 -10 10 -23 90 -14 80 4 -3 12 -23 19 -43z m-935 -60 c-9 -15 -10 -12
-10 17 0 29 1 32 10 18 7 -12 7 -24 0 -35z m-89 -56 c-5 -7 -10 -67 -11 -134
-2 -125 1 -135 53 -257 13 -28 14 -37 4 -34 -22 8 -58 69 -58 100 0 41 -29 33
-46 -12 l-12 -35 3 50 c1 28 9 74 18 103 17 58 9 66 -23 25 l-21 -28 21 42
c24 50 25 67 5 59 -8 -3 -15 -1 -15 4 0 6 4 10 9 10 15 0 49 62 56 105 10 51
19 66 23 37 2 -13 -1 -28 -6 -35z m158 -17 c-7 -33 -17 -60 -22 -60 -5 0 -7 8
-4 18 3 9 8 31 11 47 12 53 17 67 22 61 3 -3 0 -33 -7 -66z m810 14 c0 -9 -7
-14 -17 -12 -25 5 -28 28 -4 28 12 0 21 -6 21 -16z m-930 -56 c0 -16 7 -40 16
-53 13 -20 14 -25 2 -25 -8 0 -20 23 -31 58 -21 71 -21 78 -2 62 8 -7 15 -26
15 -42z m221 -75 c17 -27 23 -40 13 -31 -20 17 -59 78 -50 78 2 0 19 -21 37
-47z m-121 18 c0 -20 -13 -35 -23 -25 -7 8 4 44 14 44 5 0 9 -9 9 -19z m-10
-63 c0 -11 -46 -21 -59 -13 -20 12 -11 20 24 21 19 0 35 -3 35 -8z m208 -159
c49 1 58 -10 48 -64 -9 -45 -31 -45 -58 0 -11 20 -33 42 -49 51 -34 17 -38 30
-6 19 12 -4 41 -7 65 -6z m471 -20 c14 -40 14 -39 -4 -39 -10 0 -15 10 -15 30
0 32 -16 39 -40 18 -12 -11 -12 -10 -1 5 21 27 48 21 60 -14z m146 1 c-3 -5
-13 -10 -21 -10 -8 0 -14 -4 -14 -8 0 -5 -6 -16 -13 -25 -11 -16 -14 -16 -35
-1 l-23 16 33 18 c35 20 83 27 73 10z m-683 -32 c-9 -9 -15 -9 -24 0 -9 9 -7
12 12 12 19 0 21 -3 12 -12z m451 -8 c-3 -11 -9 -20 -15 -20 -5 0 -4 9 2 20 6
11 12 20 14 20 2 0 2 -9 -1 -20z m217 0 c-6 -11 -13 -20 -16 -20 -2 0 0 9 6
20 6 11 13 20 16 20 2 0 0 -9 -6 -20z m-186 -25 c-6 -16 -24 -21 -24 -7 0 11
11 22 21 22 5 0 6 -7 3 -15z m-640 -40 c3 -22 8 -61 12 -87 4 -27 4 -48 1 -48
-3 0 -22 9 -41 21 -43 25 -45 43 -11 93 14 20 25 44 25 53 0 29 8 9 14 -32z
m141 35 c3 -6 -4 -10 -17 -10 -23 -1 -23 -1 -3 -16 17 -13 18 -16 5 -24 -21
-13 -33 -12 -55 3 -17 13 -17 15 3 35 23 23 57 29 67 12z m-95 -30 c0 -5 -7
-10 -16 -10 -8 0 -12 5 -9 10 3 6 10 10 16 10 5 0 9 -4 9 -10z m545 0 c-3 -5
-11 -10 -16 -10 -6 0 -7 5 -4 10 3 6 11 10 16 10 6 0 7 -4 4 -10z m-68 -87
c-3 -26 -1 -57 4 -70 7 -18 5 -23 -8 -23 -12 0 -14 -7 -10 -35 3 -19 2 -37 -3
-40 -15 -9 -21 50 -11 96 5 24 13 61 16 82 9 53 19 46 12 -10z m-322 22 c35
-12 37 -14 13 -15 -15 0 -30 5 -34 11 -3 6 -17 8 -30 5 -14 -4 -24 -2 -24 4 0
14 28 12 75 -5z m52 -7 c-3 -8 -6 -5 -6 6 -1 11 2 17 5 13 3 -3 4 -12 1 -19z
m523 -3 c0 -8 -7 -15 -15 -15 -13 0 -14 3 -3 15 16 18 18 18 18 0z m-170 -60
c7 -9 8 -15 2 -15 -5 0 -12 7 -16 15 -3 8 -4 15 -2 15 2 0 9 -7 16 -15z m221
-18 c-13 -13 -26 -3 -16 12 3 6 11 8 17 5 6 -4 6 -10 -1 -17z m-766 3 c3 -5
-1 -10 -9 -10 -9 0 -16 5 -16 10 0 6 4 10 9 10 6 0 13 -4 16 -10z m215 -15 c0
-32 -67 -100 -100 -102 -59 -2 -131 43 -130 81 0 6 6 4 13 -5 49 -64 185 -47
203 27 8 31 14 31 14 -1z m425 -25 c3 -6 -1 -7 -9 -4 -18 7 -21 14 -7 14 6 0
13 -4 16 -10z m15 -65 c-7 -8 -17 -15 -23 -15 -6 0 -2 7 9 15 25 19 30 19 14
0z m-495 -55 c0 -36 -29 -33 -33 3 -3 23 0 28 15 25 12 -2 18 -12 18 -28z
m-1095 -420 c23 -66 43 -120 45 -120 1 0 22 54 45 120 38 107 45 120 66 120
l23 0 -30 -82 c-17 -46 -43 -116 -57 -155 -21 -60 -30 -73 -47 -73 -17 0 -26
13 -47 73 -14 39 -40 109 -57 155 l-30 82 23 0 c21 0 28 -13 66 -120z m420
105 c0 -11 -18 -15 -77 -17 l-78 -3 -3 -47 -3 -48 70 0 c64 0 71 -2 71 -20 0
-18 -7 -20 -70 -20 l-70 0 0 -50 0 -49 77 -3 c65 -3 78 -6 81 -20 3 -16 -7
-18 -97 -18 l-101 0 0 155 0 155 100 0 c81 0 100 -3 100 -15z m280 0 c0 -11
-12 -15 -50 -15 l-50 0 0 -140 0 -140 -25 0 -25 0 0 140 0 140 -50 0 c-38 0
-50 4 -50 15 0 13 21 15 125 15 104 0 125 -2 125 -15z m240 0 c0 -11 -18 -15
-77 -17 l-78 -3 -3 -47 -3 -48 70 0 c64 0 71 -2 71 -20 0 -18 -7 -20 -70 -20
l-70 0 0 -50 0 -49 77 -3 c65 -3 78 -6 81 -20 3 -16 -7 -18 -97 -18 l-101 0 0
155 0 155 100 0 c81 0 100 -3 100 -15z m234 -7 c23 -21 30 -45 27 -91 -1 -10
-12 -29 -26 -43 l-25 -25 36 -65 36 -64 -26 0 c-20 0 -31 11 -58 63 -31 58
-35 62 -68 62 l-35 0 -3 -62 c-3 -55 -6 -63 -22 -63 -19 0 -20 8 -20 155 l0
155 79 0 c69 0 83 -3 105 -22z m136 -133 l0 -155 -25 0 -25 0 0 155 0 155 25
0 25 0 0 -155z m201 43 l74 -113 3 113 c2 104 4 112 22 112 19 0 20 -8 20
-155 0 -148 -1 -155 -20 -155 -14 0 -40 31 -92 110 -40 60 -76 110 -80 110 -5
0 -8 -49 -8 -110 0 -103 -1 -110 -20 -110 -19 0 -20 7 -20 155 l0 155 24 0
c19 0 38 -21 97 -112z m365 -10 c25 -68 53 -138 60 -155 12 -32 12 -33 -11
-33 -20 0 -27 8 -36 40 l-12 40 -68 0 -68 0 -12 -40 c-10 -32 -17 -40 -35 -40
-27 0 -30 -12 46 185 50 131 47 125 70 125 14 0 29 -27 66 -122z m296 102 c14
-11 28 -32 31 -47 6 -33 -14 -87 -38 -101 -16 -8 -14 -15 20 -76 l37 -66 -26
0 c-20 0 -31 11 -58 63 -31 58 -35 62 -68 62 l-35 0 -3 -62 c-3 -55 -6 -63
-22 -63 -19 0 -20 8 -20 155 l0 155 79 0 c63 0 83 -4 103 -20z m138 -135 l0
-155 -25 0 -25 0 0 155 0 155 25 0 25 0 0 -155z m246 33 c25 -68 53 -138 60
-155 12 -32 12 -33 -11 -33 -20 0 -27 8 -36 40 l-12 40 -68 0 -68 0 -12 -40
c-10 -32 -17 -40 -35 -40 -27 0 -30 -12 46 185 50 131 47 125 70 125 14 0 29
-27 66 -122z"/>
<path d="M3304 4993 c-10 -32 -20 -64 -22 -70 -2 -9 12 -13 52 -13 l55 0 -19
53 c-38 108 -39 109 -66 30z"/>
<path d="M2554 4993 c-10 -32 -20 -64 -22 -70 -2 -9 12 -13 52 -13 l55 0 -19
53 c-38 108 -39 109 -66 30z"/>
<path d="M2210 3930 c0 -5 7 -10 15 -10 8 0 15 5 15 10 0 6 -7 10 -15 10 -8 0
-15 -4 -15 -10z"/>
<path d="M2525 3930 c-3 -5 3 -10 14 -10 12 0 21 5 21 10 0 6 -6 10 -14 10 -8
0 -18 -4 -21 -10z"/>
<path d="M1497 3492 c9 -26 24 -42 39 -42 18 0 0 31 -27 48 -15 10 -17 9 -12
-6z"/>
<path d="M1415 2810 c4 -6 11 -8 16 -5 14 9 11 15 -7 15 -8 0 -12 -5 -9 -10z"/>
<path d="M2065 1890 c3 -5 8 -10 11 -10 2 0 4 5 4 10 0 6 -5 10 -11 10 -5 0
-7 -4 -4 -10z"/>
<path d="M2144 1246 c-3 -7 -4 -33 -2 -57 3 -43 4 -44 41 -47 52 -4 87 19 87
58 0 19 -8 34 -22 44 -28 20 -97 21 -104 2z"/>
<path d="M2891 1164 c-11 -31 -21 -58 -21 -60 0 -2 22 -4 50 -4 l49 0 -21 60
c-12 33 -25 60 -29 60 -3 0 -16 -25 -28 -56z"/>
<path d="M3144 1246 c-3 -7 -4 -33 -2 -57 3 -43 4 -44 41 -47 52 -4 87 19 87
58 0 19 -8 34 -22 44 -28 20 -97 21 -104 2z"/>
<path d="M3571 1164 c-11 -31 -21 -58 -21 -60 0 -2 22 -4 49 -4 l50 0 -22 60
c-12 33 -25 60 -28 60 -3 0 -16 -25 -28 -56z"/>
</g>
</svg>
